# xmcd
# 
# Track frame offsets:
#     150
#     29261
#     57461
#     77603
# 
# Disc length: 1210
# 
# Revision: 0
# Processed by: cddbd v1.5.2PL0 Copyright (c) Steve Scherf et al.
# Submitted via: fre:ac v1.0.17
# 
DISCID=2904b804
DTITLE=Wlaherider - Was It Only A Dream?
DYEAR=2012
DGENRE=70's-Sludge-Pop
TTITLE0=Devil Got Me
TTITLE1=Found A Lie
TTITLE2=Was Only A Dream?
TTITLE3=Dr.One
EXTD=JIBD
EXTT0=
EXTT1=
EXTT2=
EXTT3=
PLAYORDER=
